<svg width="20" height="20" viewBox="0 0 20 20" fill="none" xmlns="http://www.w3.org/2000/svg">
<path fill-rule="evenodd" clip-rule="evenodd" d="M14.2967 4.28905C14.6872 3.89852 15.3204 3.89852 15.7109 4.28905C16.1015 4.67957 16.1015 5.31274 15.7109 5.70326L11.4142 10L15.7109 14.2968C16.1015 14.6873 16.1015 15.3205 15.7109 15.711C15.3204 16.1015 14.6873 16.1015 14.2967 15.711L9.99996 11.4142L5.7032 15.711C5.31268 16.1015 4.67951 16.1015 4.28899 15.711C3.89846 15.3205 3.89846 14.6873 4.28899 14.2968L8.58575 10L4.289 5.70326C3.89847 5.31274 3.89847 4.67957 4.289 4.28905C4.67952 3.89852 5.31269 3.89852 5.70321 4.28905L9.99996 8.5858L14.2967 4.28905Z" fill="#D13F67"/>
</svg>
