<?xml version="1.0" encoding="utf-8"?>
<!-- Generator: Adobe Illustrator 23.0.6, SVG Export Plug-In . SVG Version: 6.00 Build 0)  -->
<svg version="1.1" xmlns="http://www.w3.org/2000/svg" xmlns:xlink="http://www.w3.org/1999/xlink" x="0px" y="0px"
	 viewBox="0 0 111 82.1" style="enable-background:new 0 0 111 82.1;" xml:space="preserve">
<style type="text/css">
	.st0{fill:#FFFFFF;}
</style>
<g id="Layer_1">
	<path class="st0" d="M72.6,20.4c-1.8-0.7-3.7-1-5.7-1c-6.3,0-10.7,3.2-10.7,7.7c0,3.3,3.1,5.2,5.6,6.3c2.5,1.1,3.3,1.9,3.3,2.9
		c0,1.6-2,2.3-3.8,2.3c-2.5,0-3.9-0.3-6-1.2L54.5,37l-0.9,5.2c1.5,0.6,4.3,1.2,7.1,1.2c6.7,0,11-3.1,11.1-8c0.1-2.7-1.7-4.7-5.3-6.3
		c-2.2-1.1-3.6-1.8-3.6-2.9c0-1,1.2-2,3.6-2c1.6,0,3.2,0.3,4.7,0.9l0.6,0.3l0.9-5L72.6,20.4z M88.9,19.8H84c-1.5,0-2.7,0.4-3.3,1.9
		l-9.4,21.3h6.7l1.3-3.5l8.1,0c0.2,0.8,0.8,3.5,0.8,3.5H94L88.9,19.8z M47.2,19.6h6.3l-4,23.3h-6.3L47.2,19.6L47.2,19.6z M31.1,32.4
		l0.7,3.2l6.2-15.9h6.7L34.7,43H28l-5.5-19.7c-0.1-0.3-0.3-0.6-0.6-0.8c-2-1-4.1-1.8-6.2-2.3l0.1-0.5H26c1.4,0.1,2.5,0.5,2.9,2
		L31.1,32.4L31.1,32.4L31.1,32.4z M81,34.8l2.5-6.5c0,0.1,0.5-1.3,0.8-2.2l0.4,2l1.5,6.7L81,34.8L81,34.8L81,34.8z"/>
	<g>
		<path class="st0" d="M26.6,51.3c0.5-0.1,1.2-0.2,1.9-0.2c1.1,0,1.7,0.2,2.3,0.6c0.4,0.3,0.7,0.8,0.7,1.4c0,0.8-0.5,1.5-1.4,1.8v0
			c0.8,0.2,1.7,0.8,1.7,2c0,0.7-0.3,1.2-0.7,1.6c-0.6,0.5-1.5,0.8-2.8,0.8c-0.7,0-1.3,0-1.6-0.1V51.3z M27.6,54.6h1
			c1.1,0,1.8-0.6,1.8-1.3c0-0.9-0.7-1.3-1.8-1.3c-0.5,0-0.8,0-0.9,0.1V54.6z M27.6,58.5c0.2,0,0.5,0,0.9,0c1.1,0,2.1-0.4,2.1-1.6
			c0-1.1-1-1.5-2.1-1.5h-0.9V58.5z"/>
		<path class="st0" d="M38.8,59c-0.4,0.2-1.2,0.4-2.2,0.4c-2.3,0-4.1-1.4-4.1-4.1c0-2.5,1.7-4.2,4.3-4.2c1,0,1.7,0.2,1.9,0.4
			l-0.3,0.8c-0.4-0.2-1-0.3-1.7-0.3c-1.9,0-3.2,1.2-3.2,3.3c0,2,1.2,3.2,3.2,3.2c0.6,0,1.3-0.1,1.7-0.3L38.8,59z"/>
		<path class="st0" d="M41.2,51.2v3.5h1.2c0.2-2.2,1.6-3.6,3.5-3.6c2.1,0,3.4,1.7,3.4,4.1c0,2.8-1.6,4.2-3.5,4.2
			c-2,0-3.3-1.5-3.4-3.8h-1.2v3.7h-1.1v-8H41.2z M48.2,55.2c0-1.6-0.8-3.3-2.4-3.3c-1.6,0-2.4,1.6-2.4,3.4c0,1.7,0.9,3.3,2.4,3.3
			C47.4,58.6,48.2,57,48.2,55.2z"/>
		<path class="st0" d="M56,51.2v7.2l0.7,0l-0.1,2.7h-0.8l-0.1-1.9h-5.2l-0.1,1.9h-0.8l-0.1-2.7l0.6,0c0.3-0.5,0.6-1.1,0.8-1.8
			c0.3-0.9,0.4-2,0.4-3.4v-2H56z M52.4,53.6c0,1.3-0.1,2.4-0.4,3.3c-0.2,0.6-0.4,1.1-0.7,1.5H55v-6.3h-2.5V53.6z"/>
		<path class="st0" d="M59.1,51.2v3.4c0,1.3,0,2.3-0.1,3.4l0,0c0.4-0.8,0.9-1.7,1.5-2.7l2.7-4.1h1.1v8h-1v-3.4c0-1.3,0-2.2,0.1-3.3
			l0,0c-0.4,0.9-1,1.8-1.5,2.7l-2.6,4h-1.1v-8H59.1z"/>
		<path class="st0" d="M65.4,60.7c0.3-0.7,0.6-2,0.7-2.8l1.2-0.1c-0.3,1-0.8,2.3-1.2,2.9L65.4,60.7z"/>
		<path class="st0" d="M76.9,51.2v7.2l0.7,0l-0.1,2.7h-0.8l-0.1-1.9h-5.2l-0.1,1.9h-0.8l-0.1-2.7l0.6,0c0.3-0.5,0.6-1.1,0.8-1.8
			c0.3-0.9,0.4-2,0.4-3.4v-2H76.9z M73.3,53.6c0,1.3-0.1,2.4-0.4,3.3c-0.2,0.6-0.4,1.1-0.7,1.5h3.6v-6.3h-2.5V53.6z"/>
		<path class="st0" d="M83.2,55.5H80v2.9h3.6v0.9H79v-8h4.4v0.9H80v2.5h3.2V55.5z"/>
		<path class="st0" d="M21.6,65.5v8h-1.1v-7.2h-3.8v7.2h-1.1v-8H21.6z"/>
		<path class="st0" d="M23.4,65.6c0.5-0.1,1.2-0.2,2-0.2c1,0,1.8,0.2,2.3,0.7c0.5,0.4,0.7,1,0.7,1.7c0,0.7-0.2,1.3-0.6,1.7
			c-0.6,0.6-1.5,0.9-2.5,0.9c-0.3,0-0.6,0-0.9-0.1v3.2h-1.1V65.6z M24.5,69.5c0.2,0.1,0.5,0.1,0.9,0.1c1.3,0,2.1-0.6,2.1-1.7
			c0-1.1-0.8-1.6-1.9-1.6c-0.5,0-0.8,0-1,0.1V69.5z"/>
		<path class="st0" d="M30.2,71l-0.9,2.5h-1.1l2.8-8h1.3l2.8,8H34L33.1,71H30.2z M32.9,70.2l-0.8-2.3c-0.2-0.5-0.3-1-0.4-1.5h0
			c-0.1,0.5-0.3,1-0.4,1.5l-0.8,2.3H32.9z"/>
		<path class="st0" d="M40.7,65.5v0.9h-3.3v7.2h-1.1v-8H40.7z"/>
		<path class="st0" d="M42.7,65.5v3.4h4v-3.4h1.1v8h-1.1v-3.8h-4v3.8h-1.1v-8H42.7z"/>
		<path class="st0" d="M53.8,69.8h-3.2v2.9h3.6v0.9h-4.6v-8H54v0.9h-3.4v2.5h3.2V69.8z"/>
		<path class="st0" d="M56.6,65.5v7.2h2.7v-7.2h1v7.2H63v-7.2H64v8h-8.5v-8H56.6z"/>
		<path class="st0" d="M73.1,65.5v0.9h-3.5v2.2c0.3,0,0.7-0.1,1-0.1c0.8,0,1.5,0.2,2.1,0.5c0.6,0.4,1,1,1,2c0,0.7-0.3,1.3-0.7,1.7
			c-0.7,0.6-1.8,0.9-2.9,0.9c-0.7,0-1.3,0-1.7-0.1v-8H73.1z M69.5,72.7c0.2,0,0.5,0.1,0.9,0.1c0.7,0,1.3-0.2,1.7-0.6
			c0.3-0.3,0.5-0.7,0.5-1.2c0-0.6-0.3-1-0.7-1.3c-0.4-0.3-1-0.4-1.6-0.4c-0.2,0-0.6,0-0.8,0V72.7z"/>
		<path class="st0" d="M75.2,65.5l1.6,3.4c0.2,0.5,0.4,0.9,0.6,1.4h0c0.1-0.4,0.3-0.9,0.5-1.5l1.3-3.4h1.1l-1.7,4.1
			c-0.5,1.1-1,2.3-1.5,3c-0.5,0.7-1.1,1-1.9,1c-0.3,0-0.5,0-0.6-0.1l0.1-0.8c0.1,0,0.2,0,0.4,0c0.9,0,1.4-0.8,1.6-1.4
			c0.1-0.2,0.1-0.3,0-0.5L74,65.5H75.2z"/>
		<path class="st0" d="M83.3,66.4h-2.5v-0.9h6.1v0.9h-2.5v7.1h-1.1V66.4z"/>
		<path class="st0" d="M88.8,65.5v3.4c0,1.3,0,2.3-0.1,3.4l0,0c0.4-0.8,0.9-1.7,1.5-2.7l2.7-4.1H94v8h-1v-3.4c0-1.3,0-2.2,0.1-3.3
			l0,0c-0.4,0.9-1,1.8-1.5,2.7l-2.6,4h-1.1v-8H88.8z"/>
	</g>
</g>
<g id="Layer_2">
</g>
</svg>
