<svg width="79" height="24" viewBox="0 0 79 24" fill="none" xmlns="http://www.w3.org/2000/svg">
<path d="M56.9296 0.983072C55.1096 0.319893 53.1858 -0.012894 51.2488 0.000382095C44.9846 0.000382095 40.5605 3.15596 40.5292 7.68574C40.4901 11.0136 43.673 12.8889 46.0808 14.0008C48.5513 15.144 49.3773 15.8644 49.3695 16.8862C49.3539 18.4405 47.3963 19.1453 45.5758 19.1453C43.074 19.1453 41.7077 18.7968 39.6052 17.9237L38.8261 17.5596L37.9374 22.7746C39.4604 23.4088 42.2049 23.953 45.0394 24C51.699 24 56.0526 20.864 56.1035 16.0445C56.1583 13.3861 54.4357 11.3777 50.8103 9.71768C48.6061 8.64103 47.2397 7.92065 47.2397 6.82833C47.2397 5.8613 48.4103 4.82771 50.8573 4.82771C52.4858 4.78831 54.1042 5.09385 55.6063 5.72427L56.1936 5.98658L57.0823 0.947837L56.9296 0.983072ZM73.1851 0.423213H68.2912C66.7683 0.423213 65.6211 0.84213 64.9556 2.35336L55.5436 23.675H62.2032L63.5344 20.1789L71.6622 20.1867C71.854 21.0049 72.4413 23.675 72.4413 23.675H78.3139L73.1851 0.423213ZM31.5205 0.227457H37.8669L33.897 23.491H27.5584L31.5205 0.219627V0.227457ZM15.4099 13.0494L16.0676 16.2794L22.2691 0.423213H28.9914L19.0039 23.6437H12.2974L6.8162 3.98205C6.72743 3.65784 6.51895 3.3794 6.23285 3.20294C4.25729 2.18242 2.16406 1.40797 0 0.896939L0.0861322 0.40755H10.3007C11.6866 0.462362 12.8024 0.89694 13.1743 2.37685L15.406 13.0612V13.0494H15.4099ZM65.3549 15.422L67.8841 8.91508C67.8528 8.98556 68.4048 7.5722 68.7258 6.69913L69.1604 8.70759L70.6286 15.4181H65.351V15.422H65.3549Z" fill="white"/>
</svg>
