<?xml version="1.0" encoding="utf-8"?>
<!-- Generator: Adobe Illustrator 23.0.6, SVG Export Plug-In . SVG Version: 6.00 Build 0)  -->
<svg version="1.1" xmlns="http://www.w3.org/2000/svg" xmlns:xlink="http://www.w3.org/1999/xlink" x="0px" y="0px"
	 viewBox="0 0 172 31.3" style="enable-background:new 0 0 172 31.3;" xml:space="preserve">
<style type="text/css">
	.st0{fill:#FFFFFF;}
</style>
<g id="Layer_2">
</g>
<g id="Layer_1">
	<path class="st0" d="M60.5,3.9c-1.8-0.7-3.7-1-5.7-1c-6.3,0-10.7,3.2-10.7,7.7c0,3.3,3.1,5.2,5.6,6.3c2.5,1.1,3.3,1.9,3.3,2.9
		c0,1.6-2,2.3-3.8,2.3c-2.5,0-3.9-0.3-6-1.2l-0.8-0.4l-0.9,5.2c1.5,0.6,4.3,1.2,7.1,1.2c6.7,0,11-3.1,11.1-8
		c0.1-2.7-1.7-4.7-5.3-6.3c-2.2-1.1-3.6-1.8-3.6-2.9c0-1,1.2-2,3.6-2c1.6,0,3.2,0.3,4.7,0.9l0.6,0.3l0.9-5L60.5,3.9z M76.7,3.4h-4.9
		c-1.5,0-2.7,0.4-3.3,1.9l-9.4,21.3h6.7l1.3-3.5l8.1,0c0.2,0.8,0.8,3.5,0.8,3.5h5.9L76.7,3.4z M35.1,3.2h6.3l-4,23.3h-6.3L35.1,3.2
		L35.1,3.2z M19,16l0.7,3.2l6.2-15.9h6.7l-10,23.2h-6.7L10.4,6.9c-0.1-0.3-0.3-0.6-0.6-0.8c-2-1-4.1-1.8-6.2-2.3l0.1-0.5h10.2
		c1.4,0.1,2.5,0.5,2.9,2L19,16L19,16L19,16z M68.9,18.4l2.5-6.5c0,0.1,0.5-1.3,0.8-2.2l0.4,2l1.5,6.7L68.9,18.4L68.9,18.4L68.9,18.4
		z"/>
	<g>
		<path class="st0" d="M92.5,17.2V22l0.6,0L93,24.5h-0.8l0-1.7h-3.8l0,1.7h-0.8l0-2.5l0.5,0c0.2-0.4,0.4-0.7,0.5-1.1
			c0.2-0.7,0.3-1.4,0.3-2.2v-1.4H92.5z M89.7,18.9c0,0.7-0.1,1.4-0.3,2c-0.1,0.4-0.3,0.7-0.4,1h2.5v-4h-1.8V18.9z"/>
		<path class="st0" d="M94.8,20.2c0,1.3,0.9,1.9,1.9,1.9c0.7,0,1.1-0.1,1.5-0.3l0.2,0.7c-0.4,0.2-1,0.3-1.8,0.3
			c-1.7,0-2.7-1.1-2.7-2.8s1-3,2.6-3c1.8,0,2.3,1.6,2.3,2.6c0,0.2,0,0.4,0,0.5H94.8z M97.7,19.5c0-0.6-0.3-1.6-1.4-1.6
			c-1,0-1.5,0.9-1.5,1.6H97.7z"/>
		<path class="st0" d="M106.8,17.2v5.5h-1V18h-2.6v4.7h-1v-5.5H106.8z"/>
		<path class="st0" d="M108.4,19c0-0.7,0-1.3,0-1.8h0.9l0,0.9h0c0.4-0.7,1.1-1.1,2-1.1c1.3,0,2.3,1.1,2.3,2.8c0,2-1.2,2.9-2.5,2.9
			c-0.7,0-1.4-0.3-1.7-0.9h0v3h-1V19z M109.4,20.5c0,0.1,0,0.3,0,0.4c0.2,0.7,0.8,1.2,1.5,1.2c1.1,0,1.7-0.9,1.7-2.1
			c0-1.1-0.6-2-1.6-2c-0.7,0-1.3,0.5-1.5,1.2c0,0.1-0.1,0.3-0.1,0.4V20.5z"/>
		<path class="st0" d="M117.9,22.7l-0.1-0.7h0c-0.3,0.4-0.9,0.8-1.7,0.8c-1.1,0-1.7-0.8-1.7-1.6c0-1.3,1.2-2.1,3.3-2v-0.1
			c0-0.5-0.1-1.3-1.2-1.3c-0.5,0-1,0.2-1.4,0.4l-0.2-0.7c0.5-0.3,1.1-0.5,1.8-0.5c1.7,0,2.1,1.1,2.1,2.2v2.1c0,0.5,0,0.9,0.1,1.3
			H117.9z M117.8,19.9c-1.1,0-2.3,0.2-2.3,1.2c0,0.6,0.4,1,0.9,1c0.7,0,1.2-0.5,1.3-0.9c0-0.1,0.1-0.2,0.1-0.3V19.9z"/>
		<path class="st0" d="M123.7,17.2v0.8h-2.4v4.7h-1v-5.5H123.7z"/>
		<path class="st0" d="M125.6,17.2v2.2h2.6v-2.2h1v5.5h-1v-2.5h-2.6v2.5h-1v-5.5H125.6z"/>
		<path class="st0" d="M131.4,20.2c0,1.3,0.9,1.9,1.9,1.9c0.7,0,1.1-0.1,1.5-0.3l0.2,0.7c-0.4,0.2-1,0.3-1.8,0.3
			c-1.7,0-2.7-1.1-2.7-2.8s1-3,2.6-3c1.8,0,2.3,1.6,2.3,2.6c0,0.2,0,0.4,0,0.5H131.4z M134.3,19.5c0-0.6-0.3-1.6-1.4-1.6
			c-1,0-1.5,0.9-1.5,1.6H134.3z"/>
		<path class="st0" d="M137.4,17.2V22h1.9v-4.7h1V22h1.9v-4.7h1v5.5h-6.8v-5.5H137.4z"/>
		<path class="st0" d="M151.4,15.4c-0.3,0.1-0.8,0.2-1.1,0.2c-0.9,0.1-1.5,0.4-2,1c-0.4,0.5-0.6,1.2-0.6,1.8h0
			c0.4-0.8,1.1-1.2,1.9-1.2c1.3,0,2.3,1,2.3,2.7c0,1.8-0.9,2.9-2.5,2.9c-1.9,0-2.6-1.8-2.6-3.7c0-1.2,0.3-2.3,0.9-3
			c0.5-0.8,1.3-1.1,2.4-1.3c0.4-0.1,1-0.2,1.4-0.3L151.4,15.4z M149.4,18c-0.6,0-1,0.3-1.2,0.7c-0.2,0.3-0.3,0.7-0.3,1.2
			c0,0.9,0.4,2.2,1.5,2.2c1.1,0,1.5-1.1,1.5-2.1C151,19.1,150.6,18,149.4,18z"/>
		<path class="st0" d="M153.5,17.2l1.2,3.2c0.1,0.4,0.3,0.8,0.4,1.1h0c0.1-0.3,0.2-0.7,0.4-1.1l1.1-3.2h1.1l-1.5,3.9
			c-0.7,1.9-1.2,2.8-1.9,3.4c-0.5,0.4-1,0.6-1.2,0.6l-0.2-0.8c0.2-0.1,0.6-0.2,0.9-0.5c0.3-0.2,0.6-0.6,0.8-1.1
			c0-0.1,0.1-0.2,0.1-0.2s0-0.1-0.1-0.3l-2-5.1H153.5z"/>
		<path class="st0" d="M162.4,17.2V18h-1.7v4.7h-1V18H158v-0.8H162.4z"/>
		<path class="st0" d="M164.2,17.2v2.3c0,0.9,0,1.4-0.1,2.2l0,0c0.3-0.7,0.5-1.1,0.9-1.7l1.7-2.8h1.2v5.5h-1v-2.3
			c0-0.9,0-1.4,0.1-2.2h0c-0.4,0.7-0.6,1.1-0.9,1.7c-0.5,0.8-1.1,1.9-1.7,2.9h-1.1v-5.5H164.2z"/>
	</g>
	<g>
		<path class="st0" d="M87.7,6.1C88.1,6,88.8,6,89.5,6C90.4,6,92,6.1,92,7.4c0,0.7-0.5,1.1-1.2,1.3v0c0.8,0.1,1.4,0.6,1.4,1.4
			c0,1.5-1.8,1.6-2.9,1.6c-0.6,0-1.3,0-1.6-0.1V6.1z M88.7,10.9c0.3,0,0.5,0,0.8,0c0.7,0,1.7-0.2,1.7-1c0-0.8-0.8-1-1.8-1h-0.7V10.9
			z M88.7,8.4h0.8c0.7,0,1.5-0.2,1.5-0.9c0-0.6-0.5-0.8-1.5-0.8c-0.3,0-0.5,0-0.8,0V8.4z"/>
		<path class="st0" d="M97.4,11.4c-0.3,0.1-0.9,0.3-1.6,0.3c-1.7,0-2.8-1.1-2.8-2.8c0-1.7,1.2-3,3-3c0.6,0,1.1,0.1,1.4,0.3L97.2,7
			c-0.2-0.1-0.6-0.3-1.2-0.3c-1.3,0-2,0.9-2,2.1c0,1.3,0.8,2.1,1.9,2.1c0.6,0,1-0.1,1.2-0.3L97.4,11.4z"/>
		<path class="st0" d="M99.6,6v2.3h1c0.2-1.5,1.1-2.5,2.5-2.5c1.5,0,2.4,1.2,2.4,2.9c0,1.8-1.1,3-2.5,3c-1.3,0-2.3-1-2.4-2.6h-0.9
			v2.5h-1V6H99.6z M104.5,8.8c0-1-0.5-2.1-1.5-2.1c-1,0-1.5,1.1-1.5,2.2c0,1.1,0.5,2.1,1.5,2.1C104,11,104.5,9.9,104.5,8.8z"/>
		<path class="st0" d="M111,6v4.8l0.6,0l-0.1,2.5h-0.8l0-1.8h-3.9l0,1.8H106l0-2.5l0.5,0c0.2-0.4,0.4-0.7,0.6-1.1
			c0.2-0.7,0.3-1.4,0.3-2.2V6H111z M108.2,7.7c0,0.7-0.1,1.4-0.3,2.1c-0.1,0.4-0.3,0.7-0.4,1h2.6v-4h-1.8V7.7z"/>
		<path class="st0" d="M113.7,6v2.3c0,0.9,0,1.4-0.1,2.2l0,0c0.3-0.7,0.5-1.1,0.9-1.7l1.7-2.9h1.2v5.6h-1V9.2c0-0.9,0-1.4,0.1-2.3h0
			c-0.4,0.7-0.6,1.2-0.9,1.7c-0.5,0.9-1.1,1.9-1.7,2.9h-1.2V6H113.7z"/>
		<path class="st0" d="M118.5,13c0.3-0.7,0.6-1.9,0.7-2.7l1.1-0.1c-0.3,1-0.8,2.3-1.1,2.8L118.5,13z"/>
	</g>
</g>
</svg>
