<svg xmlns="http://www.w3.org/2000/svg" viewBox="0 0 765.64 258.81"><defs><style>.cls-1{fill:#b59e7e;}</style></defs><title>Ресурс 1</title><g id="Слой_2" data-name="Слой 2"><g id="Layer_2" data-name="Layer 2"><path class="cls-1" d="M366.19,27.15v96.24H403.9V27.15Zm11.09,85.22H371.4v-9.05h5.88Zm0-13.72H371.4V89.6h5.88Zm0-13.73H371.4v-9h5.88Zm0-13.72H371.4V62.15h5.88Zm0-13.73H371.4v-9h5.88Zm0-13.73H371.4V34.69h5.88ZM388,112.37h-5.88v-9.05H388Zm0-13.72h-5.88V89.6H388Zm0-13.73h-5.88v-9H388Zm0-13.72h-5.88V62.15H388Zm0-13.73h-5.88v-9H388Zm0-13.73h-5.88V34.69H388Zm10.71,68.63h-5.88v-9.05h5.88Zm0-13.72h-5.88V89.6h5.88Zm0-13.73h-5.88v-9h5.88Zm0-13.72h-5.88V62.15h5.88Zm0-13.73h-5.88v-9h5.88Zm0-13.73h-5.88V34.69h5.88Z"/><rect class="cls-1" x="371.78" y="21.12" width="26.55" height="8.45"/><rect class="cls-1" x="376.55" y="12.97" width="17.01" height="10.56"/><rect class="cls-1" x="382.18" width="5.73" height="14.48"/><path class="cls-1" d="M302.83,69H3.57a3.57,3.57,0,0,1,0-7.14H302.83a3.57,3.57,0,0,1,0,7.14Z"/><path class="cls-1" d="M762.07,69H462.81a3.57,3.57,0,1,1,0-7.14H762.07a3.57,3.57,0,0,1,0,7.14Z"/><path d="M109.88,192.16v-1.79h28.64v1.79h-2.38q-4.06,0-6,2.45c-.8,1-1.19,3.56-1.19,7.58v32.69a53.05,53.05,0,0,1-.39,6.81,27.23,27.23,0,0,1-1.25,5.43,18,18,0,0,1-2.3,4.44,22.58,22.58,0,0,1-3.46,3.79,14.35,14.35,0,0,1-9.73,3.46,12.86,12.86,0,0,1-4.17-.63,10,10,0,0,1-3.14-1.67,7.24,7.24,0,0,1-2-2.41,6.32,6.32,0,0,1-.69-2.87,5.76,5.76,0,0,1,.45-2.41,4.67,4.67,0,0,1,1.16-1.62,4.4,4.4,0,0,1,1.61-.89,6.17,6.17,0,0,1,1.79-.27,6.75,6.75,0,0,1,1.46.15,3,3,0,0,1,1.38.81,8.88,8.88,0,0,1,1.43,2c.49.88,1.08,2.09,1.76,3.64.75,1.79,1.73,2.69,2.92,2.69a2.51,2.51,0,0,0,1.31-.39,3.47,3.47,0,0,0,1.17-1.25,8.55,8.55,0,0,0,.83-2.27,15.53,15.53,0,0,0,.33-3.49v-45.7c0-1.59,0-2.89-.09-3.88a10.09,10.09,0,0,0-.39-2.42,3.89,3.89,0,0,0-.83-1.49,5.45,5.45,0,0,0-1.43-1,8.88,8.88,0,0,0-4.48-1.2Z"/><path d="M204.32,192.16v-1.79H228v1.79h-2.5a6.85,6.85,0,0,0-6.09,3.34c-.68,1-1,3.41-1,7.1v27.15c0,2.83-.1,5.34-.3,7.55a33.62,33.62,0,0,1-1,6,20.43,20.43,0,0,1-2,4.8,19.46,19.46,0,0,1-3.08,4,20.69,20.69,0,0,1-4.41,3.4,24.12,24.12,0,0,1-4.81,2.06,28,28,0,0,1-5,1,49,49,0,0,1-5.13.27,39.21,39.21,0,0,1-11-1.34,22.32,22.32,0,0,1-7.43-3.64,16.39,16.39,0,0,1-4.5-5.34,26.29,26.29,0,0,1-2.33-6.45,38,38,0,0,1-.86-6.92q-.12-3.51-.12-6.8V202.19a23.74,23.74,0,0,0-.45-5.13,7.33,7.33,0,0,0-1.34-3.05,4.51,4.51,0,0,0-2.24-1.46,11.5,11.5,0,0,0-3.19-.39h-2.51v-1.79h28.94v1.79H183a12.22,12.22,0,0,0-3.14.36,4.3,4.3,0,0,0-2.23,1.43A7.2,7.2,0,0,0,176.3,197a24.19,24.19,0,0,0-.44,5.19v29.17a67,67,0,0,0,.5,8.24,21.55,21.55,0,0,0,2.27,7.45,13.82,13.82,0,0,0,5.22,5.44q3.47,2.08,9.37,2.08a25.17,25.17,0,0,0,8.83-1.52,18.52,18.52,0,0,0,6.8-4.21,13.18,13.18,0,0,0,2.86-4.23,24.78,24.78,0,0,0,1.53-5,34.16,34.16,0,0,0,.59-5.25c.06-1.77.09-3.47.09-5.11V202.19c0-4.18-.46-6.78-1.37-7.82q-1.85-2.2-5.73-2.21Z"/><path d="M292.42,188.82V212h-1.85a40.9,40.9,0,0,0-1.25-5.93,22.49,22.49,0,0,0-1.94-4.66,15.48,15.48,0,0,0-2.77-3.58,18.75,18.75,0,0,0-3.76-2.71,18,18,0,0,0-8.77-2.33,12.54,12.54,0,0,0-4.69.87,12.34,12.34,0,0,0-3.76,2.29,11.13,11.13,0,0,0-2.5,3.28,8.5,8.5,0,0,0-.24,7.22,10.4,10.4,0,0,0,2.56,3.37,36.81,36.81,0,0,0,5.11,3.85q3.21,2.09,8.35,4.84a95,95,0,0,1,12.77,7.69,18.73,18.73,0,0,1,5.31,6.36,17,17,0,0,1,.3,14.79,18.49,18.49,0,0,1-4.36,5.94,21.05,21.05,0,0,1-6.68,4.06,23.52,23.52,0,0,1-8.47,1.49c-1,0-1.82,0-2.48,0a14.71,14.71,0,0,1-2.15-.24,28,28,0,0,1-2.8-.69c-1.1-.31-2.58-.75-4.45-1.31-1.59-.48-2.88-.85-3.88-1.13a9.12,9.12,0,0,0-2.14-.42,2.58,2.58,0,0,0-2,.75,6,6,0,0,0-1.08,3.07H253v-23h1.79a55.85,55.85,0,0,0,1.46,6.32,20.32,20.32,0,0,0,2,4.54A14.17,14.17,0,0,0,261,250a19.83,19.83,0,0,0,3.88,2.59,20.31,20.31,0,0,0,9.78,2.33,16.76,16.76,0,0,0,5.61-.89,13.09,13.09,0,0,0,4.21-2.39,10.49,10.49,0,0,0,2.62-3.49,9.74,9.74,0,0,0,.93-4.15,10.3,10.3,0,0,0-1.38-5,15.33,15.33,0,0,0-4.23-4.71c-.24-.16-.88-.55-1.91-1.17l-3.76-2.23L272,228l-5-3c-1.61-1-3.07-1.88-4.38-2.72s-2.27-1.49-2.86-2a21,21,0,0,1-5.46-6.3,15.5,15.5,0,0,1-1.88-7.61,15.87,15.87,0,0,1,1.49-6.83A17.59,17.59,0,0,1,258,194a19.59,19.59,0,0,1,6.17-3.79,21.36,21.36,0,0,1,7.82-1.4,28.73,28.73,0,0,1,11.33,2.63,13.06,13.06,0,0,0,3.88,1.19,3,3,0,0,0,2.09-.75,5.73,5.73,0,0,0,1.31-3.07Z"/><path d="M377.72,190.37v15.69h-1.13a22,22,0,0,0-1.31-5.39,10,10,0,0,0-2.36-3.55,8.35,8.35,0,0,0-3.58-2,18.36,18.36,0,0,0-5-.6h-9.43v51.13q0,6.21,1.31,7.7,1.86,2,5.79,2h2.33v1.85H336v-1.85h2.38q4.25,0,6-2.57,1.08-1.49,1.08-7.16V194.55h-8.06a23.18,23.18,0,0,0-6.62.66,9,9,0,0,0-4.42,3.58,14.35,14.35,0,0,0-2.15,7.27h-1.91V190.37Z"/><path d="M485,223.13a26.82,26.82,0,0,1,7,2.45,17,17,0,0,1,4.72,3.58,12.69,12.69,0,0,1,2.65,4.53,16.4,16.4,0,0,1,.84,5.25,15.14,15.14,0,0,1-.84,4.95,18.37,18.37,0,0,1-2.35,4.63,18.68,18.68,0,0,1-3.7,3.9,17.83,17.83,0,0,1-4.93,2.75q-5.54,2.09-16.82,2.09H440v-1.85h2.5q4.24,0,6-2.63,1.13-1.67,1.13-7.34V202.19c0-4.06-.48-6.66-1.43-7.82q-1.84-2.2-5.73-2.21H440v-1.79H469a74.6,74.6,0,0,1,8.69.45,38.59,38.59,0,0,1,6.68,1.34,20.21,20.21,0,0,1,5,2.3,18,18,0,0,1,3.82,3.37,15.69,15.69,0,0,1,3.94,10.38,14.24,14.24,0,0,1-3.08,9A18.33,18.33,0,0,1,485,223.13Zm-25.83-2.69a49.37,49.37,0,0,0,9.31.72q7.1,0,10.86-1.55a11.49,11.49,0,0,0,5.54-4.77,13.51,13.51,0,0,0,1.91-7,12.65,12.65,0,0,0-1.19-5.43,12.85,12.85,0,0,0-3.55-4.51,17.58,17.58,0,0,0-5.88-3.07,26.3,26.3,0,0,0-8.11-1.14,33.62,33.62,0,0,0-8.89,1.08Zm0,32a49.07,49.07,0,0,0,11.27,1.32,25.92,25.92,0,0,0,8-1.11,17.23,17.23,0,0,0,5.73-3,12.31,12.31,0,0,0,3.46-4.41,13,13,0,0,0,1.16-5.46,13.91,13.91,0,0,0-1.28-5.94,13.25,13.25,0,0,0-3.88-4.83,19.32,19.32,0,0,0-6.5-3.25,31.59,31.59,0,0,0-9.22-1.2q-3,0-5.22.09a26.21,26.21,0,0,0-3.49.33Z"/><path d="M571,192.16v-1.79h23.69v1.79h-2.51a6.84,6.84,0,0,0-6.08,3.34q-1,1.56-1,7.1v27.15c0,2.83-.1,5.34-.3,7.55a32.78,32.78,0,0,1-1,6,20.44,20.44,0,0,1-2,4.8,19.06,19.06,0,0,1-3.07,4,20.74,20.74,0,0,1-4.42,3.4,24,24,0,0,1-4.8,2.06,28,28,0,0,1-5,1,49,49,0,0,1-5.13.27,39.16,39.16,0,0,1-11-1.34,22.32,22.32,0,0,1-7.43-3.64,16.27,16.27,0,0,1-4.5-5.34A25.89,25.89,0,0,1,534,242a38,38,0,0,1-.87-6.92q-.12-3.51-.12-6.8V202.19a23.83,23.83,0,0,0-.44-5.13,7.2,7.2,0,0,0-1.35-3.05,4.48,4.48,0,0,0-2.23-1.46,11.55,11.55,0,0,0-3.19-.39h-2.51v-1.79h28.94v1.79h-2.57a12.13,12.13,0,0,0-3.13.36,4.33,4.33,0,0,0-2.24,1.43A7.2,7.2,0,0,0,543,197a24.09,24.09,0,0,0-.45,5.19v29.17a67,67,0,0,0,.51,8.24,21.34,21.34,0,0,0,2.27,7.45,13.82,13.82,0,0,0,5.22,5.44c2.3,1.39,5.43,2.08,9.36,2.08a25.09,25.09,0,0,0,8.83-1.52,18.48,18.48,0,0,0,6.81-4.21,13.35,13.35,0,0,0,2.86-4.23,24.76,24.76,0,0,0,1.52-5,33,33,0,0,0,.6-5.25c.06-1.77.09-3.47.09-5.11V202.19c0-4.18-.46-6.78-1.37-7.82q-1.86-2.2-5.73-2.21Z"/><path d="M614.46,257.26v-1.85H617q4.24,0,6-2.69c.72-1.07,1.07-3.5,1.07-7.28V202.19c0-4.18-.45-6.78-1.37-7.82q-1.85-2.2-5.73-2.21h-2.5v-1.79h27.21a92.82,92.82,0,0,1,13.15.81,40.18,40.18,0,0,1,9.76,2.56,24.06,24.06,0,0,1,7.16,4.57,31.26,31.26,0,0,1,5.37,6.8,35.19,35.19,0,0,1,4.77,18.38A37.45,37.45,0,0,1,679.49,237a29,29,0,0,1-7.1,10.71,32.45,32.45,0,0,1-11.72,7,48.46,48.46,0,0,1-16.32,2.51Zm19.09-4.84a51.8,51.8,0,0,0,10.5,1.38,26.58,26.58,0,0,0,10.59-2.09,24.24,24.24,0,0,0,8.42-6,27.69,27.69,0,0,0,5.54-9.4,39.5,39.5,0,0,0,0-24.82,27.48,27.48,0,0,0-5.57-9.39,24.4,24.4,0,0,0-8.51-6,27.48,27.48,0,0,0-10.83-2.09,41.6,41.6,0,0,0-10.14,1.43Z"/></g></g></svg>